# xmcd
#
# Track frame offsets:
#       183
#       9158
#       23003
#       39210
#       58930
#       78193
#       91938
#       110450
#       125085
#       136305
#       155000
#       171160
#
# Disc length: 2505 seconds
#
# Revision: 1
# Processed by: cddbd v1.5PL3 Copyright (c) Steve Scherf et al.
# Submitted via: MusiCat 1.1
#
DISCID=8d09c70c
DTITLE=Harry Belafonte - Island in the Sun 
DYEAR=1900
DGENRE=
TTITLE0=Jump down, spin around
TTITLE1=Day O
TTITLE2=Matilda, Matilda
TTITLE3=Mary's Boy Child
TTITLE4=There's a hole in my bucket
TTITLE5=I got plenty O' nothin'
TTITLE6=Try to remember
TTITLE7=Hava nageela
TTITLE8=The Fox
TTITLE9=Cycles
TTITLE10=No regrets
TTITLE11=Don't stop the Carnival
EXTD=\n311532304605\n
EXTT0=
EXTT1=
EXTT2=
EXTT3=
EXTT4=
EXTT5=
EXTT6=
EXTT7=
EXTT8=
EXTT9=
EXTT10=
EXTT11=
PLAYORDER=
